<svg width="187" height="57" viewBox="0 0 187 57" fill="none" xmlns="http://www.w3.org/2000/svg">
<path d="M23.3105 15C23.2172 15 23.1378 14.972 23.0725 14.916C23.0165 14.8507 22.9885 14.7713 22.9885 14.678V5.536C22.9885 5.43333 23.0165 5.354 23.0725 5.298C23.1378 5.23267 23.2172 5.2 23.3105 5.2H26.4885C27.8978 5.2 28.9152 5.51733 29.5405 6.152C30.1658 6.77733 30.4925 7.72467 30.5205 8.994C30.5298 9.26467 30.5345 9.62867 30.5345 10.086C30.5345 10.5433 30.5298 10.912 30.5205 11.192C30.4925 12.0787 30.3432 12.802 30.0725 13.362C29.8112 13.9127 29.3958 14.3233 28.8265 14.594C28.2572 14.8647 27.5012 15 26.5585 15H23.3105ZM26.4885 13.81C27.1325 13.81 27.6412 13.7213 28.0145 13.544C28.3972 13.3667 28.6725 13.0867 28.8405 12.704C29.0178 12.312 29.1158 11.7893 29.1345 11.136C29.1532 10.576 29.1625 10.226 29.1625 10.086C29.1625 9.93667 29.1532 9.59133 29.1345 9.05C29.1158 8.126 28.8965 7.454 28.4765 7.034C28.0565 6.60467 27.3705 6.39 26.4185 6.39H24.3605V13.81H26.4885ZM35.3709 15.14C34.4095 15.14 33.6395 14.846 33.0609 14.258C32.4915 13.6607 32.1789 12.8487 32.1229 11.822L32.1089 11.346L32.1229 10.884C32.1882 9.876 32.5055 9.07333 33.0749 8.476C33.6535 7.87867 34.4142 7.58 35.3569 7.58C36.3929 7.58 37.1955 7.91133 37.7649 8.574C38.3342 9.22733 38.6189 10.114 38.6189 11.234V11.472C38.6189 11.5653 38.5862 11.6447 38.5209 11.71C38.4649 11.766 38.3902 11.794 38.2969 11.794H33.4529V11.92C33.4809 12.5267 33.6629 13.0447 33.9989 13.474C34.3442 13.894 34.7969 14.104 35.3569 14.104C35.7862 14.104 36.1362 14.02 36.4069 13.852C36.6869 13.6747 36.8922 13.4927 37.0229 13.306C37.1069 13.194 37.1675 13.1287 37.2049 13.11C37.2515 13.082 37.3309 13.068 37.4429 13.068H38.1289C38.2129 13.068 38.2829 13.0913 38.3389 13.138C38.3949 13.1847 38.4229 13.25 38.4229 13.334C38.4229 13.5393 38.2922 13.7867 38.0309 14.076C37.7789 14.3653 37.4195 14.6173 36.9529 14.832C36.4955 15.0373 35.9682 15.14 35.3709 15.14ZM37.2889 10.828V10.786C37.2889 10.142 37.1115 9.61933 36.7569 9.218C36.4115 8.80733 35.9449 8.602 35.3569 8.602C34.7689 8.602 34.3022 8.80733 33.9569 9.218C33.6209 9.61933 33.4529 10.142 33.4529 10.786V10.828H37.2889ZM42.5807 15C42.3381 15 42.1654 14.8833 42.0627 14.65L39.4727 8.154L39.4447 8.014C39.4447 7.93 39.4727 7.86 39.5287 7.804C39.5847 7.748 39.6547 7.72 39.7387 7.72H40.4107C40.5694 7.72 40.6861 7.79933 40.7607 7.958L42.8887 13.474L45.0167 7.958C45.1007 7.79933 45.2127 7.72 45.3527 7.72H46.0387C46.1134 7.72 46.1787 7.748 46.2347 7.804C46.3001 7.86 46.3327 7.93 46.3327 8.014L46.3047 8.154L43.7007 14.65C43.5981 14.8833 43.4254 15 43.1827 15H42.5807ZM50.4509 15.14C49.4896 15.14 48.7196 14.846 48.1409 14.258C47.5716 13.6607 47.2589 12.8487 47.2029 11.822L47.1889 11.346L47.2029 10.884C47.2683 9.876 47.5856 9.07333 48.1549 8.476C48.7336 7.87867 49.4943 7.58 50.4369 7.58C51.4729 7.58 52.2756 7.91133 52.8449 8.574C53.4143 9.22733 53.6989 10.114 53.6989 11.234V11.472C53.6989 11.5653 53.6663 11.6447 53.6009 11.71C53.5449 11.766 53.4703 11.794 53.3769 11.794H48.5329V11.92C48.5609 12.5267 48.7429 13.0447 49.0789 13.474C49.4243 13.894 49.8769 14.104 50.4369 14.104C50.8663 14.104 51.2163 14.02 51.4869 13.852C51.7669 13.6747 51.9723 13.4927 52.1029 13.306C52.1869 13.194 52.2476 13.1287 52.2849 13.11C52.3316 13.082 52.4109 13.068 52.5229 13.068H53.2089C53.2929 13.068 53.3629 13.0913 53.4189 13.138C53.4749 13.1847 53.5029 13.25 53.5029 13.334C53.5029 13.5393 53.3723 13.7867 53.1109 14.076C52.8589 14.3653 52.4996 14.6173 52.0329 14.832C51.5756 15.0373 51.0483 15.14 50.4509 15.14ZM52.3689 10.828V10.786C52.3689 10.142 52.1916 9.61933 51.8369 9.218C51.4916 8.80733 51.0249 8.602 50.4369 8.602C49.8489 8.602 49.3823 8.80733 49.0369 9.218C48.7009 9.61933 48.5329 10.142 48.5329 10.786V10.828H52.3689ZM55.7089 15C55.6156 15 55.5362 14.972 55.4709 14.916C55.4149 14.8507 55.3869 14.7713 55.3869 14.678V5.382C55.3869 5.28867 55.4149 5.214 55.4709 5.158C55.5362 5.09267 55.6156 5.06 55.7089 5.06H56.3669C56.4602 5.06 56.5349 5.09267 56.5909 5.158C56.6562 5.214 56.6889 5.28867 56.6889 5.382V14.678C56.6889 14.7713 56.6562 14.8507 56.5909 14.916C56.5349 14.972 56.4602 15 56.3669 15H55.7089ZM61.7592 15.14C60.7325 15.14 59.9345 14.8507 59.3652 14.272C58.8052 13.6933 58.5065 12.9233 58.4692 11.962L58.4552 11.36L58.4692 10.758C58.5065 9.806 58.8099 9.04067 59.3792 8.462C59.9485 7.874 60.7419 7.58 61.7592 7.58C62.7765 7.58 63.5699 7.874 64.1392 8.462C64.7085 9.04067 65.0119 9.806 65.0492 10.758C65.0585 10.8607 65.0632 11.0613 65.0632 11.36C65.0632 11.6587 65.0585 11.8593 65.0492 11.962C65.0119 12.9233 64.7085 13.6933 64.1392 14.272C63.5792 14.8507 62.7859 15.14 61.7592 15.14ZM61.7592 14.062C62.3472 14.062 62.8092 13.8753 63.1452 13.502C63.4905 13.1287 63.6772 12.592 63.7052 11.892C63.7145 11.7987 63.7192 11.6213 63.7192 11.36C63.7192 11.0987 63.7145 10.9213 63.7052 10.828C63.6772 10.128 63.4905 9.59133 63.1452 9.218C62.8092 8.84467 62.3472 8.658 61.7592 8.658C61.1712 8.658 60.7045 8.84467 60.3592 9.218C60.0139 9.59133 59.8319 10.128 59.8132 10.828L59.7992 11.36L59.8132 11.892C59.8319 12.592 60.0139 13.1287 60.3592 13.502C60.7045 13.8753 61.1712 14.062 61.7592 14.062ZM67.1523 17.66C67.0589 17.66 66.9796 17.6273 66.9143 17.562C66.8583 17.506 66.8303 17.4313 66.8303 17.338V8.042C66.8303 7.94867 66.8583 7.874 66.9143 7.818C66.9796 7.75267 67.0589 7.72 67.1523 7.72H67.7963C67.8896 7.72 67.9643 7.75267 68.0203 7.818C68.0856 7.874 68.1183 7.94867 68.1183 8.042V8.658C68.6409 7.93933 69.4063 7.58 70.4143 7.58C71.3943 7.58 72.1269 7.888 72.6123 8.504C73.1069 9.12 73.3729 9.91333 73.4103 10.884C73.4196 10.9867 73.4243 11.1453 73.4243 11.36C73.4243 11.5747 73.4196 11.7333 73.4103 11.836C73.3729 12.7973 73.1069 13.5907 72.6123 14.216C72.1176 14.832 71.3849 15.14 70.4143 15.14C69.4436 15.14 68.6876 14.79 68.1463 14.09V17.338C68.1463 17.4313 68.1183 17.506 68.0623 17.562C68.0063 17.6273 67.9316 17.66 67.8383 17.66H67.1523ZM70.1203 14.006C70.7829 14.006 71.2636 13.8007 71.5623 13.39C71.8703 12.9793 72.0383 12.438 72.0663 11.766C72.0756 11.6727 72.0803 11.5373 72.0803 11.36C72.0803 9.596 71.4269 8.714 70.1203 8.714C69.4763 8.714 68.9909 8.92867 68.6643 9.358C68.3469 9.778 68.1743 10.282 68.1463 10.87L68.1323 11.402L68.1463 11.948C68.1649 12.4987 68.3423 12.9793 68.6783 13.39C69.0143 13.8007 69.4949 14.006 70.1203 14.006ZM78.0681 15.14C77.1068 15.14 76.3368 14.846 75.7581 14.258C75.1888 13.6607 74.8761 12.8487 74.8201 11.822L74.8061 11.346L74.8201 10.884C74.8855 9.876 75.2028 9.07333 75.7721 8.476C76.3508 7.87867 77.1115 7.58 78.0541 7.58C79.0901 7.58 79.8928 7.91133 80.4621 8.574C81.0315 9.22733 81.3161 10.114 81.3161 11.234V11.472C81.3161 11.5653 81.2835 11.6447 81.2181 11.71C81.1621 11.766 81.0875 11.794 80.9941 11.794H76.1501V11.92C76.1781 12.5267 76.3601 13.0447 76.6961 13.474C77.0415 13.894 77.4941 14.104 78.0541 14.104C78.4835 14.104 78.8335 14.02 79.1041 13.852C79.3841 13.6747 79.5895 13.4927 79.7201 13.306C79.8041 13.194 79.8648 13.1287 79.9021 13.11C79.9488 13.082 80.0281 13.068 80.1401 13.068H80.8261C80.9101 13.068 80.9801 13.0913 81.0361 13.138C81.0921 13.1847 81.1201 13.25 81.1201 13.334C81.1201 13.5393 80.9895 13.7867 80.7281 14.076C80.4761 14.3653 80.1168 14.6173 79.6501 14.832C79.1928 15.0373 78.6655 15.14 78.0681 15.14ZM79.9861 10.828V10.786C79.9861 10.142 79.8088 9.61933 79.4541 9.218C79.1088 8.80733 78.6421 8.602 78.0541 8.602C77.4661 8.602 76.9995 8.80733 76.6541 9.218C76.3181 9.61933 76.1501 10.142 76.1501 10.786V10.828H79.9861ZM85.6501 15.14C84.6794 15.14 83.9468 14.8227 83.4521 14.188C82.9574 13.5533 82.6961 12.7507 82.6681 11.78L82.6541 11.36L82.6681 10.94C82.6961 9.97867 82.9574 9.18067 83.4521 8.546C83.9468 7.902 84.6794 7.58 85.6501 7.58C86.6114 7.58 87.3674 7.92067 87.9181 8.602V5.382C87.9181 5.28867 87.9461 5.214 88.0021 5.158C88.0674 5.09267 88.1468 5.06 88.2401 5.06H88.9121C89.0054 5.06 89.0801 5.09267 89.1361 5.158C89.2014 5.214 89.2341 5.28867 89.2341 5.382V14.678C89.2341 14.7713 89.2014 14.8507 89.1361 14.916C89.0801 14.972 89.0054 15 88.9121 15H88.2821C88.1888 15 88.1094 14.972 88.0441 14.916C87.9881 14.8507 87.9601 14.7713 87.9601 14.678V14.09C87.4188 14.79 86.6488 15.14 85.6501 15.14ZM85.9441 14.006C86.5881 14.006 87.0688 13.796 87.3861 13.376C87.7128 12.9467 87.8901 12.438 87.9181 11.85C87.9274 11.7473 87.9321 11.57 87.9321 11.318C87.9321 11.0567 87.9274 10.8747 87.9181 10.772C87.8994 10.2213 87.7221 9.74067 87.3861 9.33C87.0501 8.91933 86.5694 8.714 85.9441 8.714C85.2814 8.714 84.7961 8.91933 84.4881 9.33C84.1894 9.74067 84.0261 10.282 83.9981 10.954L83.9841 11.36C83.9841 13.124 84.6374 14.006 85.9441 14.006ZM96.3518 15C96.2305 15 96.1371 14.972 96.0718 14.916C96.0065 14.86 95.9505 14.7713 95.9038 14.65L93.9158 8.154L93.8878 8.014C93.8878 7.93 93.9158 7.86 93.9718 7.804C94.0371 7.748 94.1071 7.72 94.1818 7.72H94.7978C94.8911 7.72 94.9658 7.748 95.0218 7.804C95.0871 7.85067 95.1291 7.902 95.1478 7.958L96.7018 13.236L98.3678 8.014C98.3865 7.93933 98.4285 7.874 98.4938 7.818C98.5591 7.75267 98.6478 7.72 98.7598 7.72H99.2358C99.3478 7.72 99.4365 7.75267 99.5018 7.818C99.5671 7.874 99.6091 7.93933 99.6278 8.014L101.294 13.236L102.848 7.958C102.857 7.91133 102.89 7.86 102.946 7.804C103.011 7.748 103.09 7.72 103.184 7.72H103.814C103.888 7.72 103.954 7.748 104.01 7.804C104.066 7.86 104.094 7.93 104.094 8.014L104.066 8.154L102.092 14.65C102.045 14.7713 101.989 14.86 101.924 14.916C101.858 14.972 101.76 15 101.63 15H101.084C100.832 15 100.678 14.8833 100.622 14.65L98.9978 9.638L97.3738 14.65C97.2991 14.8833 97.1405 15 96.8978 15H96.3518ZM105.854 6.362C105.761 6.362 105.682 6.334 105.616 6.278C105.56 6.21267 105.532 6.13333 105.532 6.04V5.284C105.532 5.19067 105.56 5.11133 105.616 5.046C105.682 4.98067 105.761 4.948 105.854 4.948H106.736C106.83 4.948 106.909 4.98067 106.974 5.046C107.04 5.11133 107.072 5.19067 107.072 5.284V6.04C107.072 6.13333 107.04 6.21267 106.974 6.278C106.909 6.334 106.83 6.362 106.736 6.362H105.854ZM105.966 15C105.873 15 105.794 14.972 105.728 14.916C105.672 14.8507 105.644 14.7713 105.644 14.678V8.042C105.644 7.94867 105.672 7.874 105.728 7.818C105.794 7.75267 105.873 7.72 105.966 7.72H106.638C106.732 7.72 106.806 7.75267 106.862 7.818C106.928 7.874 106.96 7.94867 106.96 8.042V14.678C106.96 14.7713 106.928 14.8507 106.862 14.916C106.806 14.972 106.732 15 106.638 15H105.966ZM111.877 15C110.402 15 109.665 14.1787 109.665 12.536V8.84H108.573C108.48 8.84 108.4 8.812 108.335 8.756C108.279 8.69067 108.251 8.61133 108.251 8.518V8.042C108.251 7.94867 108.279 7.874 108.335 7.818C108.4 7.75267 108.48 7.72 108.573 7.72H109.665V5.382C109.665 5.28867 109.693 5.214 109.749 5.158C109.814 5.09267 109.894 5.06 109.987 5.06H110.645C110.738 5.06 110.813 5.09267 110.869 5.158C110.934 5.214 110.967 5.28867 110.967 5.382V7.72H112.703C112.796 7.72 112.871 7.75267 112.927 7.818C112.992 7.874 113.025 7.94867 113.025 8.042V8.518C113.025 8.61133 112.992 8.69067 112.927 8.756C112.871 8.812 112.796 8.84 112.703 8.84H110.967V12.438C110.967 12.9047 111.046 13.2593 111.205 13.502C111.364 13.7353 111.625 13.852 111.989 13.852H112.843C112.936 13.852 113.011 13.8847 113.067 13.95C113.132 14.006 113.165 14.0807 113.165 14.174V14.678C113.165 14.7713 113.132 14.8507 113.067 14.916C113.011 14.972 112.936 15 112.843 15H111.877ZM114.84 15C114.746 15 114.667 14.972 114.602 14.916C114.546 14.8507 114.518 14.7713 114.518 14.678V5.382C114.518 5.28867 114.546 5.214 114.602 5.158C114.667 5.09267 114.746 5.06 114.84 5.06H115.54C115.633 5.06 115.708 5.09267 115.764 5.158C115.829 5.214 115.862 5.28867 115.862 5.382V8.644C116.132 8.29867 116.45 8.03733 116.814 7.86C117.178 7.67333 117.63 7.58 118.172 7.58C119.068 7.58 119.763 7.86933 120.258 8.448C120.762 9.01733 121.014 9.778 121.014 10.73V14.678C121.014 14.7713 120.981 14.8507 120.916 14.916C120.86 14.972 120.785 15 120.692 15H119.992C119.898 15 119.819 14.972 119.754 14.916C119.698 14.8507 119.67 14.7713 119.67 14.678V10.8C119.67 10.1373 119.506 9.624 119.18 9.26C118.862 8.896 118.4 8.714 117.794 8.714C117.206 8.714 116.734 8.90067 116.38 9.274C116.034 9.638 115.862 10.1467 115.862 10.8V14.678C115.862 14.7713 115.829 14.8507 115.764 14.916C115.708 14.972 115.633 15 115.54 15H114.84ZM154.086 15.14C153.078 15.14 152.313 14.79 151.79 14.09V14.678C151.79 14.7713 151.757 14.8507 151.692 14.916C151.636 14.972 151.561 15 151.468 15H150.824C150.731 15 150.651 14.972 150.586 14.916C150.53 14.8507 150.502 14.7713 150.502 14.678V5.382C150.502 5.28867 150.53 5.214 150.586 5.158C150.651 5.09267 150.731 5.06 150.824 5.06H151.51C151.603 5.06 151.678 5.09267 151.734 5.158C151.79 5.214 151.818 5.28867 151.818 5.382V8.602C152.369 7.92067 153.125 7.58 154.086 7.58C155.057 7.58 155.789 7.902 156.284 8.546C156.779 9.18067 157.045 9.97867 157.082 10.94C157.091 11.0427 157.096 11.1827 157.096 11.36C157.096 11.5373 157.091 11.6773 157.082 11.78C157.045 12.7507 156.779 13.5533 156.284 14.188C155.789 14.8227 155.057 15.14 154.086 15.14ZM153.792 14.006C154.455 14.006 154.935 13.8007 155.234 13.39C155.542 12.9793 155.71 12.438 155.738 11.766C155.747 11.6727 155.752 11.5373 155.752 11.36C155.752 9.596 155.099 8.714 153.792 8.714C153.167 8.714 152.686 8.91933 152.35 9.33C152.014 9.74067 151.837 10.2213 151.818 10.772L151.804 11.318L151.818 11.85C151.846 12.438 152.019 12.9467 152.336 13.376C152.663 13.796 153.148 14.006 153.792 14.006ZM159.815 17.66C159.74 17.66 159.675 17.632 159.619 17.576C159.563 17.52 159.535 17.4547 159.535 17.38C159.535 17.3147 159.558 17.2307 159.605 17.128L160.683 14.566L158.009 8.252C157.962 8.13067 157.939 8.05133 157.939 8.014C157.939 7.93 157.967 7.86 158.023 7.804C158.079 7.748 158.149 7.72 158.233 7.72H158.919C159.068 7.72 159.18 7.79933 159.255 7.958L161.383 13.054L163.567 7.958C163.642 7.79933 163.758 7.72 163.917 7.72H164.575C164.659 7.72 164.729 7.748 164.785 7.804C164.841 7.86 164.869 7.92533 164.869 8C164.869 8.028 164.846 8.112 164.799 8.252L160.823 17.422C160.748 17.5807 160.632 17.66 160.473 17.66H159.815ZM1.17875 44C1.05075 44 0.93875 43.952 0.84275 43.856C0.74675 43.76 0.69875 43.648 0.69875 43.52C0.69875 43.392 0.70675 43.304 0.72275 43.256L6.67475 27.728C6.80275 27.376 7.05875 27.2 7.44275 27.2H9.07475C9.45875 27.2 9.71475 27.376 9.84275 27.728L15.7708 43.256L15.8188 43.52C15.8188 43.648 15.7708 43.76 15.6748 43.856C15.5788 43.952 15.4668 44 15.3388 44H14.1148C13.9388 44 13.8028 43.96 13.7068 43.88C13.6108 43.784 13.5468 43.688 13.5148 43.592L12.1948 40.184H4.32275L3.00275 43.592C2.97075 43.688 2.89875 43.784 2.78675 43.88C2.69075 43.96 2.56275 44 2.40275 44H1.17875ZM11.4988 38.12L8.25875 29.6L5.01875 38.12H11.4988ZM21.5529 44.24C20.7689 44.24 20.0409 44.08 19.3689 43.76C18.6969 43.44 18.1609 43.008 17.7609 42.464C17.3769 41.904 17.1849 41.288 17.1849 40.616C17.1849 39.56 17.6169 38.696 18.4809 38.024C19.3609 37.336 20.5449 36.888 22.0329 36.68L25.6089 36.176V35.48C25.6089 33.848 24.6729 33.032 22.8009 33.032C22.0969 33.032 21.5209 33.184 21.0729 33.488C20.6249 33.776 20.2889 34.12 20.0649 34.52C20.0169 34.664 19.9529 34.768 19.8729 34.832C19.8089 34.896 19.7129 34.928 19.5849 34.928H18.5529C18.4089 34.928 18.2809 34.88 18.1689 34.784C18.0729 34.672 18.0249 34.544 18.0249 34.4C18.0409 34.016 18.2169 33.584 18.5529 33.104C18.9049 32.608 19.4409 32.184 20.1609 31.832C20.8809 31.464 21.7689 31.28 22.8249 31.28C24.6169 31.28 25.9049 31.704 26.6889 32.552C27.4729 33.384 27.8649 34.424 27.8649 35.672V43.448C27.8649 43.608 27.8089 43.744 27.6969 43.856C27.6009 43.952 27.4729 44 27.3129 44H26.2089C26.0489 44 25.9129 43.952 25.8009 43.856C25.7049 43.744 25.6569 43.608 25.6569 43.448V42.416C25.3049 42.928 24.7929 43.36 24.1209 43.712C23.4489 44.064 22.5929 44.24 21.5529 44.24ZM22.0569 42.44C23.0969 42.44 23.9449 42.104 24.6009 41.432C25.2729 40.744 25.6089 39.76 25.6089 38.48V37.808L22.8249 38.216C21.6889 38.376 20.8329 38.648 20.2569 39.032C19.6809 39.4 19.3929 39.872 19.3929 40.448C19.3929 41.088 19.6569 41.584 20.1849 41.936C20.7129 42.272 21.3369 42.44 22.0569 42.44ZM33.2413 48.56C33.1133 48.56 33.0013 48.512 32.9053 48.416C32.8093 48.32 32.7613 48.208 32.7613 48.08C32.7613 47.968 32.8013 47.824 32.8813 47.648L34.7293 43.256L30.1453 32.432C30.0653 32.224 30.0253 32.088 30.0253 32.024C30.0253 31.88 30.0733 31.76 30.1693 31.664C30.2653 31.568 30.3853 31.52 30.5293 31.52H31.7053C31.9613 31.52 32.1533 31.656 32.2812 31.928L35.9293 40.664L39.6733 31.928C39.8013 31.656 40.0013 31.52 40.2733 31.52H41.4012C41.5452 31.52 41.6653 31.568 41.7613 31.664C41.8573 31.76 41.9053 31.872 41.9053 32C41.9053 32.048 41.8653 32.192 41.7853 32.432L34.9693 48.152C34.8413 48.424 34.6413 48.56 34.3693 48.56H33.2413ZM48.9554 44.24C47.4354 44.24 46.2594 43.752 45.4274 42.776C44.5954 41.784 44.1794 40.472 44.1794 38.84V32.072C44.1794 31.912 44.2274 31.784 44.3234 31.688C44.4354 31.576 44.5714 31.52 44.7314 31.52H45.9314C46.0914 31.52 46.2194 31.576 46.3154 31.688C46.4274 31.784 46.4834 31.912 46.4834 32.072V38.72C46.4834 41.104 47.5234 42.296 49.6034 42.296C50.6114 42.296 51.4114 41.984 52.0034 41.36C52.5954 40.72 52.8914 39.84 52.8914 38.72V32.072C52.8914 31.912 52.9394 31.784 53.0354 31.688C53.1474 31.576 53.2834 31.52 53.4434 31.52H54.6434C54.8034 31.52 54.9314 31.576 55.0274 31.688C55.1234 31.784 55.1714 31.912 55.1714 32.072V43.448C55.1714 43.608 55.1234 43.744 55.0274 43.856C54.9314 43.952 54.8034 44 54.6434 44H53.5154C53.3554 44 53.2194 43.952 53.1074 43.856C53.0114 43.744 52.9634 43.608 52.9634 43.448V42.392C52.5154 43 51.9714 43.464 51.3314 43.784C50.6914 44.088 49.8994 44.24 48.9554 44.24ZM63.0569 44.24C61.9369 44.24 60.9929 44.064 60.2249 43.712C59.4729 43.344 58.9049 42.928 58.5209 42.464C58.1529 42 57.9689 41.616 57.9689 41.312C57.9689 41.152 58.0249 41.032 58.1369 40.952C58.2649 40.856 58.3929 40.808 58.5209 40.808H59.6009C59.7609 40.808 59.9049 40.888 60.0329 41.048C60.4169 41.496 60.8329 41.848 61.2809 42.104C61.7289 42.36 62.3289 42.488 63.0809 42.488C63.9129 42.488 64.5849 42.328 65.0969 42.008C65.6249 41.672 65.8889 41.216 65.8889 40.64C65.8889 40.256 65.7769 39.944 65.5529 39.704C65.3449 39.448 64.9769 39.232 64.4489 39.056C63.9369 38.864 63.1689 38.656 62.1449 38.432C60.7529 38.128 59.7609 37.688 59.1689 37.112C58.5929 36.536 58.3049 35.792 58.3049 34.88C58.3049 34.272 58.4809 33.696 58.8329 33.152C59.2009 32.592 59.7289 32.144 60.4169 31.808C61.1209 31.456 61.9609 31.28 62.9369 31.28C63.9609 31.28 64.8329 31.448 65.5529 31.784C66.2729 32.12 66.8089 32.52 67.1609 32.984C67.5289 33.432 67.7129 33.808 67.7129 34.112C67.7129 34.256 67.6569 34.376 67.5449 34.472C67.4489 34.568 67.3289 34.616 67.1849 34.616H66.1769C65.9849 34.616 65.8249 34.536 65.6969 34.376C65.4409 34.072 65.2169 33.84 65.0249 33.68C64.8489 33.504 64.5849 33.352 64.2329 33.224C63.8969 33.096 63.4649 33.032 62.9369 33.032C62.1689 33.032 61.5769 33.2 61.1609 33.536C60.7449 33.856 60.5369 34.28 60.5369 34.808C60.5369 35.144 60.6249 35.432 60.8009 35.672C60.9769 35.896 61.3129 36.104 61.8089 36.296C62.3209 36.488 63.0569 36.688 64.0169 36.896C65.5369 37.216 66.6089 37.68 67.2329 38.288C67.8729 38.88 68.1929 39.64 68.1929 40.568C68.1929 41.256 67.9929 41.88 67.5929 42.44C67.1929 43 66.6009 43.44 65.8169 43.76C65.0489 44.08 64.1289 44.24 63.0569 44.24ZM71.5473 44C71.3873 44 71.2513 43.952 71.1393 43.856C71.0433 43.744 70.9953 43.608 70.9953 43.448V27.512C70.9953 27.352 71.0433 27.224 71.1393 27.128C71.2513 27.016 71.3873 26.96 71.5473 26.96H72.7473C72.9073 26.96 73.0353 27.016 73.1313 27.128C73.2433 27.224 73.2993 27.352 73.2993 27.512V33.104C73.7633 32.512 74.3073 32.064 74.9313 31.76C75.5553 31.44 76.3313 31.28 77.2593 31.28C78.7953 31.28 79.9873 31.776 80.8353 32.768C81.6993 33.744 82.1313 35.048 82.1313 36.68V43.448C82.1313 43.608 82.0753 43.744 81.9633 43.856C81.8673 43.952 81.7393 44 81.5793 44H80.3793C80.2193 44 80.0833 43.952 79.9713 43.856C79.8753 43.744 79.8273 43.608 79.8273 43.448V36.8C79.8273 35.664 79.5473 34.784 78.9873 34.16C78.4433 33.536 77.6513 33.224 76.6113 33.224C75.6033 33.224 74.7953 33.544 74.1873 34.184C73.5953 34.808 73.2993 35.68 73.2993 36.8V43.448C73.2993 43.608 73.2433 43.744 73.1313 43.856C73.0353 43.952 72.9073 44 72.7473 44H71.5473ZM96.7831 44.24C95.0391 44.24 93.5911 43.808 92.4391 42.944C91.2871 42.08 90.6791 40.816 90.6151 39.152C90.6151 39.008 90.6631 38.888 90.7591 38.792C90.8551 38.68 90.9831 38.624 91.1431 38.624H92.4391C92.7751 38.624 92.9831 38.808 93.0631 39.176C93.1591 40.2 93.5511 40.96 94.2391 41.456C94.9271 41.952 95.7911 42.2 96.8311 42.2C98.0311 42.2 98.9511 41.808 99.5911 41.024C100.247 40.224 100.575 39.152 100.575 37.808V29.288H92.0551C91.8951 29.288 91.7591 29.24 91.6471 29.144C91.5511 29.032 91.5031 28.896 91.5031 28.736V27.752C91.5031 27.592 91.5511 27.464 91.6471 27.368C91.7591 27.256 91.8951 27.2 92.0551 27.2H102.399C102.575 27.2 102.711 27.256 102.807 27.368C102.919 27.464 102.975 27.6 102.975 27.776V37.856C102.975 39.808 102.423 41.36 101.319 42.512C100.231 43.664 98.7191 44.24 96.7831 44.24ZM111.802 44.24C110.042 44.24 108.674 43.744 107.698 42.752C106.738 41.76 106.226 40.44 106.162 38.792L106.138 37.76L106.162 36.728C106.226 35.096 106.746 33.784 107.722 32.792C108.698 31.784 110.058 31.28 111.802 31.28C113.546 31.28 114.906 31.784 115.882 32.792C116.858 33.784 117.378 35.096 117.442 36.728C117.458 36.904 117.466 37.248 117.466 37.76C117.466 38.272 117.458 38.616 117.442 38.792C117.378 40.44 116.858 41.76 115.882 42.752C114.922 43.744 113.562 44.24 111.802 44.24ZM111.802 42.392C112.81 42.392 113.602 42.072 114.178 41.432C114.77 40.792 115.09 39.872 115.138 38.672C115.154 38.512 115.162 38.208 115.162 37.76C115.162 37.312 115.154 37.008 115.138 36.848C115.09 35.648 114.77 34.728 114.178 34.088C113.602 33.448 112.81 33.128 111.802 33.128C110.794 33.128 109.994 33.448 109.402 34.088C108.81 34.728 108.498 35.648 108.466 36.848L108.442 37.76L108.466 38.672C108.498 39.872 108.81 40.792 109.402 41.432C109.994 42.072 110.794 42.392 111.802 42.392ZM125.583 49.28C124.271 49.28 123.215 49.056 122.415 48.608C121.615 48.176 121.047 47.68 120.711 47.12C120.375 46.56 120.191 46.056 120.159 45.608C120.143 45.448 120.191 45.312 120.303 45.2C120.431 45.088 120.567 45.032 120.711 45.032H121.863C122.007 45.032 122.127 45.064 122.223 45.128C122.319 45.208 122.399 45.344 122.463 45.536C122.655 46.048 122.967 46.488 123.399 46.856C123.847 47.24 124.535 47.432 125.463 47.432C126.647 47.432 127.519 47.176 128.079 46.664C128.639 46.168 128.919 45.28 128.919 44V42.368C128.503 42.896 127.975 43.32 127.335 43.64C126.695 43.944 125.935 44.096 125.055 44.096C123.359 44.096 122.087 43.56 121.239 42.488C120.407 41.4 119.967 40.024 119.919 38.36L119.895 37.688L119.919 37.04C119.967 35.392 120.415 34.024 121.263 32.936C122.111 31.832 123.375 31.28 125.055 31.28C126.735 31.28 128.047 31.896 128.991 33.128V32.096C128.991 31.936 129.039 31.8 129.135 31.688C129.247 31.576 129.383 31.52 129.543 31.52H130.647C130.807 31.52 130.943 31.576 131.055 31.688C131.167 31.8 131.223 31.936 131.223 32.096V43.736C131.223 47.432 129.343 49.28 125.583 49.28ZM125.535 42.176C126.623 42.176 127.447 41.816 128.007 41.096C128.567 40.376 128.871 39.52 128.919 38.528C128.935 38.384 128.943 38.104 128.943 37.688C128.943 37.288 128.935 37.016 128.919 36.872C128.871 35.88 128.567 35.024 128.007 34.304C127.463 33.584 126.639 33.224 125.535 33.224C124.399 33.224 123.575 33.576 123.063 34.28C122.551 34.984 122.271 35.912 122.223 37.064L122.199 37.688L122.223 38.336C122.271 39.472 122.551 40.4 123.063 41.12C123.575 41.824 124.399 42.176 125.535 42.176ZM135.368 44C135.208 44 135.072 43.952 134.96 43.856C134.864 43.744 134.816 43.608 134.816 43.448V27.512C134.816 27.352 134.864 27.224 134.96 27.128C135.072 27.016 135.208 26.96 135.368 26.96H136.496C136.656 26.96 136.784 27.016 136.88 27.128C136.992 27.224 137.048 27.352 137.048 27.512V43.448C137.048 43.608 136.992 43.744 136.88 43.856C136.784 43.952 136.656 44 136.496 44H135.368ZM145.62 44.24C143.972 44.24 142.652 43.736 141.66 42.728C140.684 41.704 140.148 40.312 140.052 38.552L140.028 37.736L140.052 36.944C140.164 35.216 140.708 33.84 141.684 32.816C142.676 31.792 143.98 31.28 145.596 31.28C147.372 31.28 148.748 31.848 149.724 32.984C150.7 34.104 151.188 35.624 151.188 37.544V37.952C151.188 38.112 151.132 38.248 151.02 38.36C150.924 38.456 150.796 38.504 150.636 38.504H142.332V38.72C142.38 39.76 142.692 40.648 143.268 41.384C143.86 42.104 144.636 42.464 145.596 42.464C146.332 42.464 146.932 42.32 147.396 42.032C147.876 41.728 148.228 41.416 148.452 41.096C148.596 40.904 148.7 40.792 148.764 40.76C148.844 40.712 148.98 40.688 149.172 40.688H150.348C150.492 40.688 150.612 40.728 150.708 40.808C150.804 40.888 150.852 41 150.852 41.144C150.852 41.496 150.628 41.92 150.18 42.416C149.748 42.912 149.132 43.344 148.332 43.712C147.548 44.064 146.644 44.24 145.62 44.24ZM148.908 36.848V36.776C148.908 35.672 148.604 34.776 147.996 34.088C147.404 33.384 146.604 33.032 145.596 33.032C144.588 33.032 143.788 33.384 143.196 34.088C142.62 34.776 142.332 35.672 142.332 36.776V36.848H148.908ZM154.633 44C154.473 44 154.337 43.952 154.225 43.856C154.129 43.744 154.081 43.608 154.081 43.448V27.512C154.081 27.352 154.129 27.224 154.225 27.128C154.337 27.016 154.473 26.96 154.633 26.96H155.761C155.921 26.96 156.049 27.016 156.145 27.128C156.257 27.224 156.313 27.352 156.313 27.512V35.864L161.041 31.928C161.089 31.896 161.169 31.832 161.281 31.736C161.393 31.656 161.497 31.6 161.593 31.568C161.705 31.536 161.841 31.52 162.001 31.52H163.273C163.417 31.52 163.537 31.568 163.633 31.664C163.729 31.76 163.777 31.88 163.777 32.024C163.777 32.2 163.681 32.352 163.489 32.48L157.945 37.088L164.089 43.064C164.281 43.224 164.377 43.368 164.377 43.496C164.377 43.64 164.329 43.76 164.233 43.856C164.137 43.952 164.017 44 163.873 44H162.625C162.385 44 162.209 43.976 162.097 43.928C162.001 43.88 161.857 43.768 161.665 43.592L156.313 38.48V43.448C156.313 43.608 156.257 43.744 156.145 43.856C156.049 43.952 155.921 44 155.761 44H154.633ZM169.678 44.24C168.894 44.24 168.166 44.08 167.494 43.76C166.822 43.44 166.286 43.008 165.886 42.464C165.502 41.904 165.31 41.288 165.31 40.616C165.31 39.56 165.742 38.696 166.606 38.024C167.486 37.336 168.67 36.888 170.158 36.68L173.734 36.176V35.48C173.734 33.848 172.798 33.032 170.926 33.032C170.222 33.032 169.646 33.184 169.198 33.488C168.75 33.776 168.414 34.12 168.19 34.52C168.142 34.664 168.078 34.768 167.998 34.832C167.934 34.896 167.838 34.928 167.71 34.928H166.678C166.534 34.928 166.406 34.88 166.294 34.784C166.198 34.672 166.15 34.544 166.15 34.4C166.166 34.016 166.342 33.584 166.678 33.104C167.03 32.608 167.566 32.184 168.286 31.832C169.006 31.464 169.894 31.28 170.95 31.28C172.742 31.28 174.03 31.704 174.814 32.552C175.598 33.384 175.99 34.424 175.99 35.672V43.448C175.99 43.608 175.934 43.744 175.822 43.856C175.726 43.952 175.598 44 175.438 44H174.334C174.174 44 174.038 43.952 173.926 43.856C173.83 43.744 173.782 43.608 173.782 43.448V42.416C173.43 42.928 172.918 43.36 172.246 43.712C171.574 44.064 170.718 44.24 169.678 44.24ZM170.182 42.44C171.222 42.44 172.07 42.104 172.726 41.432C173.398 40.744 173.734 39.76 173.734 38.48V37.808L170.95 38.216C169.814 38.376 168.958 38.648 168.382 39.032C167.806 39.4 167.518 39.872 167.518 40.448C167.518 41.088 167.782 41.584 168.31 41.936C168.838 42.272 169.462 42.44 170.182 42.44ZM179.992 44C179.832 44 179.696 43.952 179.584 43.856C179.488 43.744 179.44 43.608 179.44 43.448V32.096C179.44 31.936 179.488 31.8 179.584 31.688C179.696 31.576 179.832 31.52 179.992 31.52H181.096C181.256 31.52 181.392 31.576 181.504 31.688C181.616 31.8 181.672 31.936 181.672 32.096V33.152C182.328 32.064 183.448 31.52 185.032 31.52H185.968C186.128 31.52 186.256 31.576 186.352 31.688C186.464 31.784 186.52 31.912 186.52 32.072V33.056C186.52 33.216 186.464 33.344 186.352 33.44C186.256 33.536 186.128 33.584 185.968 33.584H184.528C183.664 33.584 182.984 33.84 182.488 34.352C181.992 34.848 181.744 35.528 181.744 36.392V43.448C181.744 43.608 181.688 43.744 181.576 43.856C181.464 43.952 181.328 44 181.168 44H179.992Z" fill="white"/>
<path d="M134.333 17.2917L133.125 16.1917C128.833 12.3 126 9.73333 126 6.58333C126 4.01667 128.017 2 130.583 2C132.033 2 133.425 2.675 134.333 3.74167C135.242 2.675 136.633 2 138.083 2C140.65 2 142.667 4.01667 142.667 6.58333C142.667 9.73333 139.833 12.3 135.542 16.2L134.333 17.2917Z" fill="white"/>
</svg>
